PathFileType	4	(X/Y/Z)	markers
DataRate	CameraRate	NumFrames	NumMarkers	Units	OrigDataRate	OrigDataStartFrame	OrigNumFrames
200	200	4	49	mm	200	1	219
Frame#	Time	RASI			LASI			RPSI			LPSI			RTH1			RTH2			RTH3			RTH4			RLFC			RMFC			RTB1			RTB2			RTB3			RTB4			RLMAL			RMMAL			RCAL			RTOE			RMT5			LTH1			LTH2			LTH3			LTH4			LLFC			LMFC			LTB1			LTB2			LTB3			LTB4			LLMAL			LMMAL			LCAL			LTOE			LMT5			C7			T10			CLAV			RACR			LACR			RLEL			RFAradius			LLEL			LFAradius			RHJC			LHJC			RKJC			LKJC			RAJC			LAJC		
		X1	Y1	Z1	X2	Y2	Z2	X3	Y3	Z3	X4	Y4	Z4	X5	Y5	Z5	X6	Y6	Z6	X7	Y7	Z7	X8	Y8	Z8	X9	Y9	Z9	X10	Y10	Z10	X11	Y11	Z11	X12	Y12	Z12	X13	Y13	Z13	X14	Y14	Z14	X15	Y15	Z15	X16	Y16	Z16	X17	Y17	Z17	X18	Y18	Z18	X19	Y19	Z19	X20	Y20	Z20	X21	Y21	Z21	X22	Y22	Z22	X23	Y23	Z23	X24	Y24	Z24	X25	Y25	Z25	X26	Y26	Z26	X27	Y27	Z27	X28	Y28	Z28	X29	Y29	Z29	X30	Y30	Z30	X31	Y31	Z31	X32	Y32	Z32	X33	Y33	Z33	X34	Y34	Z34	X35	Y35	Z35	X36	Y36	Z36	X37	Y37	Z37	X38	Y38	Z38	X39	Y39	Z39	X40	Y40	Z40	X41	Y41	Z41	X42	Y42	Z42	X43	Y43	Z43	X44	Y44	Z44	X45	Y45	Z45	X46	Y46	Z46	X47	Y47	Z47	X48	Y48	Z48	X49	Y49	Z49
1	0.000000	697.097443	1021.923866	-1485.126145	699.451468	1025.202858	-1723.009788	533.802308	1059.819371	-1558.639955	532.529159	1059.955493	-1648.848716	636.711340	772.658642	-1416.484236	692.582874	758.910909	-1447.651638	672.744289	659.716078	-1445.892744	629.576684	665.790458	-1420.594754	594.135502	548.958155	-1424.697719	589.717235	512.145520	-1539.746369	555.758394	429.892340	-1388.353107	600.078485	425.127939	-1410.377238	595.971029	317.986953	-1414.907158	538.902049	328.117318	-1385.086832	525.568596	128.950963	-1396.681451	548.863089	131.069342	-1495.780882	459.359078	90.253218	-1449.744630	678.482180	65.800854	-1467.729596	645.317554	58.449667	-1374.199396	668.000039	771.386803	-1792.074534	700.943809	770.520360	-1755.115138	692.020019	668.687668	-1743.334878	649.132318	665.985760	-1791.761965	597.350168	532.191834	-1800.769992	567.137566	517.221751	-1678.256413	581.082771	441.746736	-1831.384479	618.859762	434.735323	-1802.108390	605.089700	333.981323	-1795.195186	554.544110	337.210020	-1835.760068	539.917828	124.542616	-1807.610775	533.116487	127.506182	-1709.846882	452.929131	87.153257	-1766.583058	670.374632	69.640968	-1723.227897	644.024847	57.987125	-1819.540510	530.024798	1559.849547	-1613.517184	488.946665	1346.654952	-1609.364090	644.482114	1501.836190	-1586.143886	541.933046	1563.993402	-1481.505724	535.805754	1560.554912	-1738.412041	548.344312	1500.943927	-1167.871091	611.269133	1556.257018	-914.479646	581.379654	1481.889829	-2053.311403	678.709049	1540.291829	-2294.324511	630.454866	952.888518	-1519.888016	632.152980	955.253871	-1691.489119	591.926368	530.551837	-1482.222044	582.243867	524.706792	-1739.513203	537.215843	130.010152	-1446.231167	536.517158	126.024399	-1758.728829
2	0.005000	697.063164	1021.931041	-1485.108941	699.474741	1025.213028	-1723.026094	533.966818	1059.766502	-1558.624443	532.646610	1059.882536	-1648.910507	636.809460	772.717536	-1416.497628	692.558415	758.834499	-1447.645271	672.735854	659.724371	-1445.927198	629.637286	665.742761	-1420.596500	594.125516	548.999010	-1424.711789	589.656403	512.087937	-1539.721338	555.644346	429.810587	-1388.282844	600.075481	425.125622	-1410.399310	596.058490	318.004323	-1414.878183	538.883671	328.131532	-1385.080112	525.565103	128.931082	-1396.624711	548.912902	131.053482	-1495.839842	459.393696	90.267431	-1449.758626	678.485369	65.833668	-1467.753250	645.324717	58.420493	-1374.192572	667.989900	771.338655	-1792.073539	700.964264	770.524254	-1755.079820	692.045328	668.721623	-1743.309472	649.063786	666.008718	-1791.766632	597.378513	532.199599	-1800.768172	567.095325	517.186240	-1678.298087	581.024409	441.664646	-1831.345899	618.866517	434.758568	-1802.071173	605.104241	334.039324	-1795.195090	554.464420	337.196280	-1835.761220	539.945305	124.563428	-1807.624306	533.222947	127.514538	-1709.901278	452.832435	87.095362	-1766.560769	670.344505	69.651588	-1723.239121	644.000327	57.973720	-1819.535302	530.133532	1559.540257	-1613.497010	488.883313	1346.622820	-1609.346625	644.448836	1501.825677	-1586.179116	542.004990	1563.956958	-1481.552288	535.717153	1560.549657	-1738.406607	548.447149	1500.905522	-1167.887325	610.948222	1556.568485	-914.555547	581.414427	1482.049465	-2053.316156	678.664425	1540.314939	-2294.403662	630.479666	952.862843	-1519.893316	632.219274	955.230327	-1691.516499	591.890959	530.543473	-1482.216563	582.236919	524.692920	-1739.533130	537.239003	129.992282	-1446.232277	536.584126	126.038983	-1758.762792
3	0.010000	697.030009	1021.863044	-1485.120047	699.474288	1025.166496	-1722.985741	533.827445	1059.799308	-1558.676602	532.684742	1059.916722	-1648.949797	636.601686	772.619261	-1416.471599	692.511584	758.855608	-1447.677473	672.843072	659.715162	-1445.927397	629.619377	665.781180	-1420.596441	594.027168	549.014257	-1424.739737	589.693391	512.141430	-1539.743141	555.724213	429.842076	-1388.308775	600.081892	425.108947	-1410.421092	596.048692	318.011412	-1414.914645	538.897453	328.088905	-1385.120007	525.560444	128.922581	-1396.664489	548.913520	131.063640	-1495.797683	459.343405	90.268949	-1449.757544	678.498810	65.824415	-1467.734553	645.335020	58.390532	-1374.185431	668.023545	771.381407	-1792.110321	700.900810	770.497630	-1755.078767	692.061504	668.761759	-1743.353088	649.113831	666.000613	-1791.761025	597.388901	532.214207	-1800.796088	567.213464	517.213339	-1678.291287	581.107941	441.742785	-1831.422287	618.878566	434.738700	-1802.070550	605.103016	334.055956	-1795.217804	554.476863	337.176121	-1835.760550	539.938961	124.566097	-1807.648553	533.223168	127.486772	-1709.881381	452.907241	87.165728	-1766.604550	670.374627	69.633875	-1723.264778	644.067787	58.033287	-1819.528966	530.176402	1559.535173	-1613.398571	488.964051	1346.533656	-1609.372018	644.456828	1501.807412	-1586.175344	541.950703	1563.938970	-1481.584204	535.782351	1560.528919	-1738.486787	548.432026	1500.895533	-1167.903977	610.884070	1556.537405	-914.576506	581.361485	1482.054307	-2053.339793	678.715278	1540.331462	-2294.376807	630.409035	952.847568	-1519.911263	632.172264	955.230579	-1691.500442	591.860280	530.577844	-1482.241439	582.301183	524.713773	-1739.543688	537.236982	129.993110	-1446.231086	536.581064	126.026435	-1758.764967
4	0.015000	697.146437	1021.990555	-1485.169121	699.497692	1025.187396	-1723.047601	533.966817	1059.766500	-1558.624443	532.560079	1059.917014	-1648.960511	636.740863	772.667563	-1416.486477	692.608449	758.914920	-1447.689897	672.767294	659.618379	-1445.966021	629.602290	665.786913	-1420.669438	594.063150	548.977569	-1424.717486	589.703339	512.146389	-1539.715690	555.684240	429.826424	-1388.296021	600.121148	425.141592	-1410.361498	595.970912	317.923219	-1414.855103	538.893273	328.114991	-1385.081468	525.551712	128.924373	-1396.642653	548.885326	131.061295	-1495.800778	459.319731	90.318130	-1449.767431	678.509433	65.834341	-1467.736671	645.306043	58.415459	-1374.182443	668.053902	771.389913	-1792.110077	700.900817	770.497618	-1755.078767	692.072816	668.734962	-1743.300360	649.095356	666.015453	-1791.760110	597.376645	532.181224	-1800.798817	567.172732	517.228601	-1678.262294	581.107959	441.742756	-1831.422287	618.997855	434.823066	-1802.071475	605.165124	333.868382	-1795.206684	554.427808	337.145100	-1835.722038	539.927901	124.530810	-1807.625161	533.178477	127.488313	-1709.897095	452.866345	87.113317	-1766.596107	670.323549	69.598351	-1723.206238	644.037982	57.988122	-1819.515531	530.028787	1559.853796	-1613.510934	488.936429	1346.618364	-1609.432443	644.476256	1501.832087	-1586.206332	541.976226	1563.975686	-1481.585792	535.816318	1560.537431	-1738.487195	548.438144	1500.896648	-1167.972556	611.210518	1556.271694	-914.525075	581.407188	1482.099790	-2053.364842	678.734453	1540.374677	-2294.366885	630.543157	952.918398	-1519.905284	632.239275	955.224494	-1691.503049	591.883244	530.561979	-1482.216588	582.274688	524.704913	-1739.530556	537.218519	129.992834	-1446.221716	536.553189	126.009562	-1758.761128
